<?xml version="1.0" standalone="no"?>
<!DOCTYPE svg PUBLIC "-//W3C//DTD SVG 20010904//EN"
 "http://www.w3.org/TR/2001/REC-SVG-20010904/DTD/svg10.dtd">
<svg version="1.0" xmlns="http://www.w3.org/2000/svg"
 width="300.000000pt" height="300.000000pt" viewBox="0 0 300.000000 300.000000"
 preserveAspectRatio="xMidYMid meet">
<metadata>
Created by potrace 1.11, written by Peter Selinger 2001-2013
</metadata>
<g transform="translate(0.000000,300.000000) scale(0.100000,-0.100000)"
fill="#000000" stroke="none">
<path d="M70 1570 l0 -760 160 0 160 0 0 760 0 760 -160 0 -160 0 0 -760z"/>
<path d="M590 1810 l0 -520 160 0 160 0 0 520 0 520 -160 0 -160 0 0 -520z"/>
<path d="M1110 1570 l0 -760 160 0 160 0 0 760 0 760 -160 0 -160 0 0 -760z"/>
<path d="M1630 2170 l0 -160 160 0 160 0 0 160 0 160 -160 0 -160 0 0 -160z"/>
<path d="M2150 2170 l0 -160 400 0 400 0 0 160 0 160 -400 0 -400 0 0 -160z"/>
<path d="M1630 1310 l0 -500 160 0 160 0 0 500 0 500 -160 0 -160 0 0 -500z"/>
<path d="M2150 1310 l0 -500 160 0 160 0 0 500 0 500 -160 0 -160 0 0 -500z"/>
</g>
</svg>
